M48
;Layer_Color=9474304
;FILE_FORMAT=4:4
METRIC,LZ
;TYPE=PLATED
T1F00S00C0.3000
T2F00S00C1.0000
%
T01
X0043053Y0041234
Y0045634
X0043053Y00502764
X00397087
Y00546764
X0043053
Y0059292
X00397087
X00413808Y0063692
X0043753
X0043942Y0068072
X0041656
X00397087Y0068158
X0041148Y0072644
X0043403Y0072558
X0043688Y007747
X00413808Y00774036
X0038862Y007747
X0035814
X0033528
X0033274Y0072644
X0037084
X0038862
X0036576Y0068072
X0033528Y0068072
Y0063754
X0034544
X003683
X0039116
X003668Y0059419
X0034036Y0059182
X0033274Y005461
X0036068
X00363643Y00502764
X003302
X0033274Y004572
X0036322Y0045634
X0039624
Y0041234
X0036322
X003302
X0027432Y0040494
X0033274Y0081788
X0035814
X0039624
X0038354Y008636
X0035814
X0033274
Y0090932
X0035814
X0038354
X00422185Y00909805
X00440995Y0090946
X0043942Y0086614
X00413808Y0086446
Y00818036
X0043434Y0081788
T02
X0027084Y0095758
X0029584
X0032084
X0034584
X0037084
X0039584
X0042084
M30
