G04*
G04 #@! TF.GenerationSoftware,Altium Limited,Altium Designer,21.6.1 (37)*
G04*
G04 Layer_Physical_Order=1*
G04 Layer_Color=255*
%FSLAX44Y44*%
%MOMM*%
G71*
G04*
G04 #@! TF.SameCoordinates,7934F4AE-985A-4D5C-9069-E765C515617C*
G04*
G04*
G04 #@! TF.FilePolarity,Positive*
G04*
G01*
G75*
%ADD15R,0.8000X1.0000*%
%ADD16R,0.7000X0.9000*%
%ADD17R,0.6000X2.2000*%
G04:AMPARAMS|DCode=18|XSize=0.6mm|YSize=0.9mm|CornerRadius=0.15mm|HoleSize=0mm|Usage=FLASHONLY|Rotation=270.000|XOffset=0mm|YOffset=0mm|HoleType=Round|Shape=RoundedRectangle|*
%AMROUNDEDRECTD18*
21,1,0.6000,0.6000,0,0,270.0*
21,1,0.3000,0.9000,0,0,270.0*
1,1,0.3000,-0.3000,-0.1500*
1,1,0.3000,-0.3000,0.1500*
1,1,0.3000,0.3000,0.1500*
1,1,0.3000,0.3000,-0.1500*
%
%ADD18ROUNDEDRECTD18*%
%ADD19R,0.9000X0.6000*%
%ADD20R,2.6000X1.2000*%
%ADD21R,0.9000X0.7000*%
%ADD22R,0.8000X0.8000*%
%ADD33C,1.0000*%
%ADD34C,0.4000*%
%ADD35C,1.5080*%
%ADD36R,1.5080X1.5080*%
%ADD37C,0.7000*%
G36*
X459740Y466476D02*
X453240D01*
Y455476D01*
X455912D01*
Y441900D01*
X454240D01*
Y436880D01*
X314960D01*
Y480060D01*
X459740D01*
Y466476D01*
D02*
G37*
G36*
X462280Y568960D02*
Y553629D01*
X453240D01*
Y542629D01*
X455912D01*
Y529053D01*
X454240D01*
Y528320D01*
X310590D01*
Y549240D01*
X310350Y551067D01*
X309850Y552273D01*
Y568341D01*
X310749Y569238D01*
X462280Y568960D01*
D02*
G37*
G36*
Y640782D02*
X453240D01*
Y629782D01*
X455912D01*
Y619760D01*
X312420D01*
Y657860D01*
X462280D01*
Y640782D01*
D02*
G37*
G36*
Y727934D02*
X453240D01*
Y716934D01*
X455912D01*
Y708660D01*
X313105D01*
X312420Y709345D01*
Y749300D01*
X462280D01*
Y727934D01*
D02*
G37*
G36*
X464820Y815087D02*
X453240D01*
Y804087D01*
X455912D01*
Y802640D01*
X309880D01*
Y818058D01*
X310350Y819193D01*
X310590Y821020D01*
X310350Y822847D01*
X309880Y823982D01*
Y840740D01*
X464820D01*
Y815087D01*
D02*
G37*
G36*
X455912Y877663D02*
X454240D01*
Y865663D01*
X464820D01*
Y848360D01*
X312420D01*
Y889000D01*
X455912D01*
Y877663D01*
D02*
G37*
G36*
X467360Y902602D02*
X466240Y902240D01*
Y902240D01*
X453240D01*
Y894080D01*
X312420D01*
Y932180D01*
X467360D01*
Y902602D01*
D02*
G37*
D15*
X245988Y493620D02*
D03*
X228988D02*
D03*
X245988Y581900D02*
D03*
X228988D02*
D03*
X245988Y673100D02*
D03*
X228988D02*
D03*
X245988Y766480D02*
D03*
X228988D02*
D03*
X245988Y403000D02*
D03*
X228988D02*
D03*
Y861060D02*
D03*
X245988D02*
D03*
D16*
X244988Y549500D02*
D03*
X229988D02*
D03*
X244988Y640320D02*
D03*
X229988D02*
D03*
X244988Y734060D02*
D03*
X229988D02*
D03*
X244988Y463960D02*
D03*
X229988D02*
D03*
X244988Y911860D02*
D03*
X229988D02*
D03*
Y822360D02*
D03*
X244988D02*
D03*
D17*
X303530Y912460D02*
D03*
X290830D02*
D03*
X265430D02*
D03*
X303530Y860460D02*
D03*
X290830D02*
D03*
X265430D02*
D03*
X278130Y912460D02*
D03*
Y860460D02*
D03*
X303530Y821020D02*
D03*
X290830D02*
D03*
X265430D02*
D03*
X303530Y769020D02*
D03*
X290830D02*
D03*
X265430D02*
D03*
X278130Y821020D02*
D03*
Y769020D02*
D03*
X303530Y729580D02*
D03*
X290830D02*
D03*
X265430D02*
D03*
X303530Y677580D02*
D03*
X290830D02*
D03*
X265430D02*
D03*
X278130Y729580D02*
D03*
Y677580D02*
D03*
X303300Y639240D02*
D03*
X290600D02*
D03*
X265200D02*
D03*
X303300Y587240D02*
D03*
X290600D02*
D03*
X265200D02*
D03*
X277900Y639240D02*
D03*
Y587240D02*
D03*
X303530Y549240D02*
D03*
X290830D02*
D03*
X265430D02*
D03*
X303530Y497240D02*
D03*
X290830D02*
D03*
X265430D02*
D03*
X278130Y549240D02*
D03*
Y497240D02*
D03*
X306070Y456940D02*
D03*
X293370D02*
D03*
X267970D02*
D03*
X306070Y404940D02*
D03*
X293370D02*
D03*
X267970D02*
D03*
X280670Y456940D02*
D03*
Y404940D02*
D03*
D18*
X225990Y442980D02*
D03*
X224720Y530200D02*
D03*
X226060Y623520D02*
D03*
X225990Y713080D02*
D03*
Y803920D02*
D03*
X225988Y895960D02*
D03*
D19*
X225990Y433480D02*
D03*
Y423980D02*
D03*
X248990D02*
D03*
Y433480D02*
D03*
Y442980D02*
D03*
X224720Y520700D02*
D03*
Y511200D02*
D03*
X247720D02*
D03*
Y520700D02*
D03*
Y530200D02*
D03*
X226060Y614020D02*
D03*
Y604520D02*
D03*
X249060D02*
D03*
Y614020D02*
D03*
Y623520D02*
D03*
X225990Y703580D02*
D03*
Y694080D02*
D03*
X248990D02*
D03*
Y703580D02*
D03*
Y713080D02*
D03*
X225990Y794420D02*
D03*
Y784920D02*
D03*
X248990D02*
D03*
Y794420D02*
D03*
Y803920D02*
D03*
X225988Y886460D02*
D03*
Y876960D02*
D03*
X248988D02*
D03*
Y886460D02*
D03*
Y895960D02*
D03*
D20*
X430530Y412340D02*
D03*
Y456340D02*
D03*
X396240Y412340D02*
D03*
Y456340D02*
D03*
X363220Y412340D02*
D03*
Y456340D02*
D03*
X330200Y412340D02*
D03*
Y456340D02*
D03*
Y502764D02*
D03*
Y546764D02*
D03*
Y592920D02*
D03*
Y636920D02*
D03*
Y681580D02*
D03*
Y725580D02*
D03*
Y774036D02*
D03*
Y818036D02*
D03*
Y864460D02*
D03*
Y908460D02*
D03*
X430530Y864460D02*
D03*
Y908460D02*
D03*
X397087Y864460D02*
D03*
Y908460D02*
D03*
X363643Y864460D02*
D03*
Y908460D02*
D03*
X430530Y774036D02*
D03*
Y818036D02*
D03*
X397087Y774036D02*
D03*
Y818036D02*
D03*
X430530Y681580D02*
D03*
Y725580D02*
D03*
X397087Y681580D02*
D03*
Y725580D02*
D03*
X430530Y592920D02*
D03*
Y636920D02*
D03*
X397087Y592920D02*
D03*
Y636920D02*
D03*
X430530Y502764D02*
D03*
Y546764D02*
D03*
X397087Y502764D02*
D03*
Y546764D02*
D03*
X363643Y774036D02*
D03*
Y818036D02*
D03*
Y681580D02*
D03*
Y725580D02*
D03*
Y592920D02*
D03*
Y636920D02*
D03*
Y502764D02*
D03*
Y546764D02*
D03*
D21*
X459740Y475976D02*
D03*
Y460976D02*
D03*
Y911740D02*
D03*
Y896740D02*
D03*
Y824587D02*
D03*
Y809587D02*
D03*
Y737434D02*
D03*
Y722434D02*
D03*
Y650282D02*
D03*
Y635282D02*
D03*
Y563129D02*
D03*
Y548129D02*
D03*
D22*
X460240Y435900D02*
D03*
Y420900D02*
D03*
Y871663D02*
D03*
Y856663D02*
D03*
Y784511D02*
D03*
Y769511D02*
D03*
Y697358D02*
D03*
Y682358D02*
D03*
Y610205D02*
D03*
Y595205D02*
D03*
Y523053D02*
D03*
Y508053D02*
D03*
D33*
X429670Y680720D02*
X430530Y681580D01*
X397087D02*
X397947Y680720D01*
X429670D01*
X430530Y681580D02*
X439420D01*
X365760D02*
X397087D01*
X363643D02*
X365760D01*
X330200D02*
X335280D01*
X363643D01*
X439420D02*
X459462D01*
X306070Y429470D02*
X323200Y412340D01*
X330200D02*
X363220D01*
X306070Y429470D02*
Y456940D01*
X323200Y412340D02*
X330200D01*
X271780Y497240D02*
X278130D01*
X265030Y767080D02*
X288890D01*
X261620D02*
X265030D01*
X254000Y861060D02*
X264830D01*
X265430Y860460D01*
X278130D02*
X290830D01*
X265430D02*
X278130D01*
X290830D02*
X292830Y858460D01*
Y847261D02*
Y858460D01*
Y847261D02*
X300350Y839740D01*
X313530Y874130D02*
Y881130D01*
X303530Y891130D02*
X313530Y881130D01*
Y874130D02*
X323200Y864460D01*
X330200D02*
X363643D01*
X323200D02*
X330200D01*
X274320Y404940D02*
X280670D01*
X332740Y456340D02*
X363220D01*
X332740Y546764D02*
X363643D01*
X330200Y636920D02*
X363643D01*
Y725580D02*
X397087D01*
X363643Y818036D02*
X396240D01*
X280670Y404940D02*
X293370D01*
X430530Y412340D02*
X431530Y413340D01*
X452680D01*
X460240Y420900D01*
X430530Y502764D02*
X454951D01*
X460240Y508053D01*
X453895Y563129D02*
X459740D01*
X430530Y546764D02*
X437530D01*
X453895Y563129D01*
X457955Y592920D02*
X460240Y595205D01*
X430530Y592920D02*
X457955D01*
X450892Y650282D02*
X459740D01*
X430530Y636920D02*
X437530D01*
X450892Y650282D01*
X459462Y681580D02*
X460240Y682358D01*
X437530Y725580D02*
X449384Y737434D01*
X430530Y725580D02*
X437530D01*
X449384Y737434D02*
X459740D01*
X431530Y773036D02*
X456715D01*
X460240Y769511D01*
X430530Y774036D02*
X431530Y773036D01*
X451289Y819036D02*
X456841Y824587D01*
X459740D01*
X431530Y819036D02*
X451289D01*
X430530Y818036D02*
X431530Y819036D01*
X430530Y864460D02*
X431530Y863460D01*
X457341Y856663D02*
X460240D01*
X450544Y863460D02*
X457341Y856663D01*
X431530Y863460D02*
X450544D01*
X424530Y909460D02*
X457460D01*
X423530Y908460D02*
X424530Y909460D01*
X457460D02*
X459740Y911740D01*
X397087Y908460D02*
X423530D01*
X420840Y911150D02*
X423530Y908460D01*
X420840Y911150D02*
Y957580D01*
X363643Y908460D02*
X397087D01*
X330200D02*
X363643D01*
X290830Y912460D02*
X303530D01*
X278130D02*
X290830D01*
X265430D02*
X278130D01*
X303530Y891130D02*
Y912460D01*
X397087Y864460D02*
X430530D01*
X363643D02*
X397087D01*
X323200Y818036D02*
X330200D01*
X315530Y825706D02*
X323200Y818036D01*
X315530Y825706D02*
Y832919D01*
X308710Y839740D02*
X315530Y832919D01*
X300350Y839740D02*
X308710D01*
X397087Y818036D02*
X430530D01*
X330200D02*
X363643D01*
X290830Y821020D02*
X303530D01*
X278130D02*
X290830D01*
X265430D02*
X278130D01*
X299720Y820420D02*
X302930D01*
X303530Y821020D01*
X299720Y797516D02*
X323200Y774036D01*
X330200D01*
X299720Y797516D02*
Y820420D01*
X397087Y774036D02*
X430530D01*
X363643D02*
X397087D01*
X330200D02*
X363643D01*
X263560Y769020D02*
X265430D01*
X261620Y767080D02*
X263560Y769020D01*
X288890Y767080D02*
X290830Y769020D01*
Y765020D02*
X293530Y762320D01*
X315530Y733250D02*
Y741479D01*
X290830Y765020D02*
Y769020D01*
X315530Y733250D02*
X323200Y725580D01*
X330200D01*
X300350Y748300D02*
X308710D01*
X293530Y755120D02*
X300350Y748300D01*
X293530Y755120D02*
Y762320D01*
X308710Y748300D02*
X315530Y741479D01*
X397087Y725580D02*
X430530D01*
X330200D02*
X363643D01*
X290830Y729580D02*
X303530D01*
X278130D02*
X290830D01*
X265430D02*
X278130D01*
X313530Y691250D02*
Y698250D01*
X303530Y708250D02*
X313530Y698250D01*
X303530Y708250D02*
Y729580D01*
X323200Y681580D02*
X330200D01*
X313530Y691250D02*
X323200Y681580D01*
X278130Y677580D02*
X290830D01*
X265430D02*
X278130D01*
X313931Y646189D02*
X323200Y636920D01*
X299116Y658095D02*
X308345D01*
X323200Y636920D02*
X330200D01*
X313931Y646189D02*
Y652509D01*
X308345Y658095D02*
X313931Y652509D01*
X292830Y664380D02*
X299116Y658095D01*
X292830Y664380D02*
Y675580D01*
X290830Y677580D02*
X292830Y675580D01*
X397087Y636920D02*
X430530D01*
X363643D02*
X397087D01*
Y592920D02*
X430530D01*
X363643D02*
X397087D01*
X330200D02*
X363643D01*
X303300Y612820D02*
X323200Y592920D01*
X330200D01*
X303300Y612820D02*
Y639240D01*
X290600D02*
X303300D01*
X277900D02*
X290600D01*
X265200D02*
X277900D01*
X397087Y546764D02*
X430530D01*
X363643D02*
X397087D01*
X330200Y546764D02*
Y561340D01*
X292600Y574040D02*
Y585240D01*
X297400Y569240D02*
X322300D01*
X290600Y587240D02*
X292600Y585240D01*
Y574040D02*
X297400Y569240D01*
X322300D02*
X330200Y561340D01*
X277900Y587240D02*
X290600D01*
X265200D02*
X277900D01*
X290830Y549240D02*
X303530D01*
X278130D02*
X290830D01*
X265430D02*
X278130D01*
X303530Y522434D02*
X323200Y502764D01*
X303530Y522434D02*
Y549240D01*
X323200Y502764D02*
X330200D01*
X397087D02*
X430530D01*
X363643D02*
X397087D01*
X330200D02*
X363643D01*
X396240Y412340D02*
X430530D01*
X363220D02*
X396240D01*
X293370Y456940D02*
X306070D01*
X280670D02*
X293370D01*
X267970D02*
X280670D01*
X436880Y470118D02*
X442738Y475976D01*
X459740D01*
X430530Y456340D02*
X435880D01*
X436880Y457340D01*
Y470118D01*
X396240Y456340D02*
X430530D01*
X363220D02*
X396240D01*
X332740Y457340D02*
Y467360D01*
X324400Y475700D02*
X332740Y467360D01*
X292830Y484040D02*
X301170Y475700D01*
X292830Y484040D02*
Y495240D01*
X301170Y475700D02*
X324400D01*
X290830Y497240D02*
X292830Y495240D01*
X278130Y497240D02*
X290830D01*
D34*
X459990Y871913D02*
Y896490D01*
Y871913D02*
X460240Y871663D01*
X459740Y896740D02*
X459990Y896490D01*
Y784761D02*
X460240Y784511D01*
X459740Y809587D02*
X459990Y809337D01*
Y784761D02*
Y809337D01*
X459740Y722434D02*
X459990Y722184D01*
Y697608D02*
Y722184D01*
Y697608D02*
X460240Y697358D01*
X459990Y610455D02*
Y635032D01*
Y610455D02*
X460240Y610205D01*
X459740Y635282D02*
X459990Y635032D01*
X459740Y548129D02*
X459990Y547879D01*
Y523303D02*
Y547879D01*
Y523303D02*
X460240Y523053D01*
X459740Y460976D02*
X459990Y460726D01*
Y436150D02*
X460240Y435900D01*
X459990Y436150D02*
Y460726D01*
X247720Y530200D02*
X278570D01*
X303530Y505240D01*
Y497240D02*
Y505240D01*
X306070Y404940D02*
Y412940D01*
X290550Y428460D02*
X306070Y412940D01*
X276793Y428460D02*
X290550D01*
X262273Y442980D02*
X276793Y428460D01*
X248990Y442980D02*
X262273D01*
X245988Y403000D02*
X271568D01*
X273508Y404940D01*
X274320D01*
X230988Y415821D02*
X235768Y420601D01*
X230988Y405000D02*
Y415821D01*
X245988Y402000D02*
Y403000D01*
X237988Y394000D02*
X245988Y402000D01*
X223331Y394000D02*
X237988D01*
X220987Y396343D02*
X223331Y394000D01*
X220987Y396343D02*
Y409657D01*
X224988Y413657D01*
Y422980D01*
X225988Y423980D01*
X225990D01*
X228988Y403000D02*
X230988Y405000D01*
X235768Y420601D02*
Y440682D01*
X234490Y441960D02*
Y448080D01*
Y439202D02*
Y441960D01*
X235768Y440682D01*
X229768Y434480D02*
X234490Y439202D01*
X225990Y433480D02*
X226990Y434480D01*
X229768D01*
X229988Y452582D02*
Y463960D01*
Y452582D02*
X234490Y448080D01*
X245488Y492120D02*
Y493120D01*
Y464460D02*
Y492120D01*
X245988Y493620D02*
X268160D01*
X238331Y484963D02*
X245488Y492120D01*
X244988Y463960D02*
X245488Y464460D01*
Y493120D02*
X245988Y493620D01*
X268160D02*
X271780Y497240D01*
X233680Y480060D02*
X238331Y484711D01*
Y484963D01*
X233220Y506543D02*
Y526422D01*
X227891Y480060D02*
X233680D01*
X220987Y486963D02*
Y500277D01*
Y486963D02*
X227891Y480060D01*
X220987Y500277D02*
X222911Y502200D01*
Y510200D01*
X223911Y511200D01*
X228988Y493620D02*
X230988Y495620D01*
Y504311D01*
X233220Y506543D01*
X223911Y511200D02*
X224720D01*
X233220Y526422D02*
Y535095D01*
X229988Y538327D02*
X233220Y535095D01*
X225720Y521700D02*
X228498D01*
X224720Y520700D02*
X225720Y521700D01*
X229988Y538327D02*
Y549500D01*
X228498Y521700D02*
X233220Y526422D01*
X237988Y572900D02*
X245488Y580400D01*
Y581400D01*
Y550000D02*
Y580400D01*
Y581400D02*
X245988Y581900D01*
X244988Y549500D02*
X245488Y550000D01*
X265200Y582900D02*
Y587240D01*
X245988Y581900D02*
X264200D01*
X265200Y582900D01*
X234560Y596915D02*
Y619742D01*
X223331Y572900D02*
X237988D01*
X220987Y575243D02*
X223331Y572900D01*
X220987Y575243D02*
Y591828D01*
X226060Y596900D01*
Y604520D01*
X228988Y581900D02*
Y591342D01*
X234560Y596915D01*
X226060Y614020D02*
X227060Y615020D01*
X229838D01*
X234560Y619742D01*
Y627298D01*
X229988Y631871D02*
X234560Y627298D01*
X229988Y631871D02*
Y640320D01*
X275020Y623520D02*
X303300Y595240D01*
X249060Y623520D02*
X275020D01*
X303300Y587240D02*
Y595240D01*
X245988Y673100D02*
X264430D01*
X237988Y664100D02*
X245488Y671600D01*
Y640820D02*
Y671600D01*
X244988Y640320D02*
X245488Y640820D01*
Y671600D02*
X245988Y672100D01*
X264430Y673100D02*
X265430Y674100D01*
Y677580D01*
X223331Y664100D02*
X237988D01*
X245988Y672100D02*
Y673100D01*
X234490Y688285D02*
Y704580D01*
X220987Y666443D02*
Y683268D01*
Y666443D02*
X223331Y664100D01*
X220987Y683268D02*
X223490Y685770D01*
Y693080D01*
X224490Y694080D02*
X225990D01*
X228988Y673100D02*
Y682782D01*
X223490Y693080D02*
X224490Y694080D01*
X228988Y682782D02*
X234490Y688285D01*
X232129Y706941D02*
X234490Y709302D01*
X225990Y703580D02*
X226990Y704580D01*
X234490D01*
X232129Y706941D02*
X234490Y704580D01*
X229988Y722682D02*
X234490Y718180D01*
Y709302D02*
Y718180D01*
X229988Y722682D02*
Y734060D01*
X237988Y757480D02*
X245488Y764980D01*
Y765980D01*
Y734560D02*
Y764980D01*
Y765980D02*
X245988Y766480D01*
X244988Y734060D02*
X245488Y734560D01*
X248990Y713080D02*
X276030D01*
X303530Y685580D01*
Y677580D02*
Y685580D01*
Y769020D02*
Y777020D01*
X248990Y803920D02*
X276630D01*
X303530Y777020D01*
X265030Y767080D02*
X265430Y767480D01*
X264430Y766480D02*
X265030Y767080D01*
X245988Y766480D02*
X264430D01*
X265430Y767480D02*
Y769020D01*
X224490Y784920D02*
X225990D01*
X220987Y759823D02*
X223331Y757480D01*
X237988D01*
X220987Y759823D02*
Y781418D01*
X224490Y784920D01*
X232129Y797781D02*
X234490Y800142D01*
X228988Y775577D02*
X231331Y777920D01*
X232147D01*
X228988Y766480D02*
Y775577D01*
X232147Y777920D02*
X234490Y780263D01*
Y795420D01*
X232129Y797781D02*
X234490Y795420D01*
Y800142D02*
Y807698D01*
X229988Y812201D02*
X234490Y807698D01*
X229988Y812201D02*
Y822360D01*
X245488Y852548D02*
X254000Y861060D01*
X245000Y852060D02*
X245488Y852548D01*
Y860560D01*
Y822860D02*
Y852548D01*
X244988Y822360D02*
X245488Y822860D01*
Y860560D02*
X245988Y861060D01*
X223331Y852060D02*
X245000D01*
X220987Y854403D02*
X223331Y852060D01*
X220987Y854403D02*
Y871960D01*
X223487Y874460D01*
Y875960D01*
X224487Y876960D01*
X225988D01*
X234488Y867560D02*
Y892182D01*
X228988Y862060D02*
X234488Y867560D01*
X228988Y861060D02*
Y862060D01*
X226988Y887460D02*
X229766D01*
X225988Y886460D02*
X226988Y887460D01*
X229988Y911860D02*
X231488Y910360D01*
Y902738D02*
Y910360D01*
Y902738D02*
X234488Y899738D01*
Y892182D02*
Y899738D01*
X229766Y887460D02*
X234488Y892182D01*
X276030Y895960D02*
X303530Y868460D01*
Y860460D02*
Y868460D01*
X248988Y895960D02*
X276030D01*
X319200Y912460D02*
Y916447D01*
X308187Y927460D02*
X319200Y916447D01*
X323200Y908460D02*
X330200D01*
X259587Y927460D02*
X308187D01*
X244988Y912860D02*
X259587Y927460D01*
X319200Y912460D02*
X323200Y908460D01*
X244988Y911860D02*
Y912860D01*
D35*
X395840Y957580D02*
D03*
X370840D02*
D03*
X295840D02*
D03*
X320840D02*
D03*
X345840D02*
D03*
X420840D02*
D03*
D36*
X270840D02*
D03*
D37*
X330200Y412340D02*
D03*
X363220D02*
D03*
X396240D02*
D03*
X430530D02*
D03*
Y456340D02*
D03*
X396240D02*
D03*
X363220D02*
D03*
X416560Y680720D02*
D03*
X397087Y681580D02*
D03*
X430530Y502764D02*
D03*
X397087D02*
D03*
X363643D02*
D03*
X330200D02*
D03*
X430530Y546764D02*
D03*
X397087D02*
D03*
X360680Y546100D02*
D03*
X430530Y592920D02*
D03*
X397087D02*
D03*
X366800Y594190D02*
D03*
X340360Y591820D02*
D03*
X391160Y637540D02*
D03*
X413808Y636920D02*
D03*
X437530D02*
D03*
X439420Y680720D02*
D03*
X365760Y680720D02*
D03*
X368300Y637540D02*
D03*
X335280D02*
D03*
Y680720D02*
D03*
X332740Y726440D02*
D03*
X388620D02*
D03*
X411480D02*
D03*
X434030Y725580D02*
D03*
X436880Y774700D02*
D03*
X413808Y774036D02*
D03*
X388620Y774700D02*
D03*
X358140D02*
D03*
X335280D02*
D03*
X332740Y817880D02*
D03*
X358140D02*
D03*
X439420Y866140D02*
D03*
X413808Y864460D02*
D03*
X383540Y863600D02*
D03*
X332740D02*
D03*
X358140D02*
D03*
X332740Y909320D02*
D03*
X358140D02*
D03*
X383540D02*
D03*
X440995Y909460D02*
D03*
X422185Y909805D02*
D03*
X434340Y817880D02*
D03*
X413808Y818036D02*
D03*
X274320Y404940D02*
D03*
X332740Y457200D02*
D03*
Y546100D02*
D03*
X345440Y637540D02*
D03*
X370840Y726440D02*
D03*
X396240Y817880D02*
D03*
M02*
