G04*
G04 #@! TF.GenerationSoftware,Altium Limited,Altium Designer,21.6.1 (37)*
G04*
G04 Layer_Color=8388736*
%FSLAX44Y44*%
%MOMM*%
G71*
G04*
G04 #@! TF.SameCoordinates,7934F4AE-985A-4D5C-9069-E765C515617C*
G04*
G04*
G04 #@! TF.FilePolarity,Negative*
G04*
G01*
G75*
%ADD23R,1.0000X1.2000*%
%ADD24R,0.9000X1.1000*%
%ADD25R,0.8000X2.4000*%
G04:AMPARAMS|DCode=26|XSize=0.8mm|YSize=1.1mm|CornerRadius=0.25mm|HoleSize=0mm|Usage=FLASHONLY|Rotation=270.000|XOffset=0mm|YOffset=0mm|HoleType=Round|Shape=RoundedRectangle|*
%AMROUNDEDRECTD26*
21,1,0.8000,0.6000,0,0,270.0*
21,1,0.3000,1.1000,0,0,270.0*
1,1,0.5000,-0.3000,-0.1500*
1,1,0.5000,-0.3000,0.1500*
1,1,0.5000,0.3000,0.1500*
1,1,0.5000,0.3000,-0.1500*
%
%ADD26ROUNDEDRECTD26*%
%ADD27R,1.1000X0.8000*%
%ADD28R,2.8000X1.4000*%
%ADD29R,1.1000X0.9000*%
%ADD30R,1.0000X1.0000*%
%ADD31C,1.7080*%
%ADD32R,1.7080X1.7080*%
D23*
X245988Y493620D02*
D03*
X228988D02*
D03*
X245988Y581900D02*
D03*
X228988D02*
D03*
X245988Y673100D02*
D03*
X228988D02*
D03*
X245988Y766480D02*
D03*
X228988D02*
D03*
X245988Y403000D02*
D03*
X228988D02*
D03*
Y861060D02*
D03*
X245988D02*
D03*
D24*
X244988Y549500D02*
D03*
X229988D02*
D03*
X244988Y640320D02*
D03*
X229988D02*
D03*
X244988Y734060D02*
D03*
X229988D02*
D03*
X244988Y463960D02*
D03*
X229988D02*
D03*
X244988Y911860D02*
D03*
X229988D02*
D03*
Y822360D02*
D03*
X244988D02*
D03*
D25*
X303530Y912460D02*
D03*
X290830D02*
D03*
X265430D02*
D03*
X303530Y860460D02*
D03*
X290830D02*
D03*
X265430D02*
D03*
X278130Y912460D02*
D03*
Y860460D02*
D03*
X303530Y821020D02*
D03*
X290830D02*
D03*
X265430D02*
D03*
X303530Y769020D02*
D03*
X290830D02*
D03*
X265430D02*
D03*
X278130Y821020D02*
D03*
Y769020D02*
D03*
X303530Y729580D02*
D03*
X290830D02*
D03*
X265430D02*
D03*
X303530Y677580D02*
D03*
X290830D02*
D03*
X265430D02*
D03*
X278130Y729580D02*
D03*
Y677580D02*
D03*
X303300Y639240D02*
D03*
X290600D02*
D03*
X265200D02*
D03*
X303300Y587240D02*
D03*
X290600D02*
D03*
X265200D02*
D03*
X277900Y639240D02*
D03*
Y587240D02*
D03*
X303530Y549240D02*
D03*
X290830D02*
D03*
X265430D02*
D03*
X303530Y497240D02*
D03*
X290830D02*
D03*
X265430D02*
D03*
X278130Y549240D02*
D03*
Y497240D02*
D03*
X306070Y456940D02*
D03*
X293370D02*
D03*
X267970D02*
D03*
X306070Y404940D02*
D03*
X293370D02*
D03*
X267970D02*
D03*
X280670Y456940D02*
D03*
Y404940D02*
D03*
D26*
X225990Y442980D02*
D03*
X224720Y530200D02*
D03*
X226060Y623520D02*
D03*
X225990Y713080D02*
D03*
Y803920D02*
D03*
X225988Y895960D02*
D03*
D27*
X225990Y433480D02*
D03*
Y423980D02*
D03*
X248990D02*
D03*
Y433480D02*
D03*
Y442980D02*
D03*
X224720Y520700D02*
D03*
Y511200D02*
D03*
X247720D02*
D03*
Y520700D02*
D03*
Y530200D02*
D03*
X226060Y614020D02*
D03*
Y604520D02*
D03*
X249060D02*
D03*
Y614020D02*
D03*
Y623520D02*
D03*
X225990Y703580D02*
D03*
Y694080D02*
D03*
X248990D02*
D03*
Y703580D02*
D03*
Y713080D02*
D03*
X225990Y794420D02*
D03*
Y784920D02*
D03*
X248990D02*
D03*
Y794420D02*
D03*
Y803920D02*
D03*
X225988Y886460D02*
D03*
Y876960D02*
D03*
X248988D02*
D03*
Y886460D02*
D03*
Y895960D02*
D03*
D28*
X430530Y412340D02*
D03*
Y456340D02*
D03*
X396240Y412340D02*
D03*
Y456340D02*
D03*
X363220Y412340D02*
D03*
Y456340D02*
D03*
X330200Y412340D02*
D03*
Y456340D02*
D03*
Y502764D02*
D03*
Y546764D02*
D03*
Y592920D02*
D03*
Y636920D02*
D03*
Y681580D02*
D03*
Y725580D02*
D03*
Y774036D02*
D03*
Y818036D02*
D03*
Y864460D02*
D03*
Y908460D02*
D03*
X430530Y864460D02*
D03*
Y908460D02*
D03*
X397087Y864460D02*
D03*
Y908460D02*
D03*
X363643Y864460D02*
D03*
Y908460D02*
D03*
X430530Y774036D02*
D03*
Y818036D02*
D03*
X397087Y774036D02*
D03*
Y818036D02*
D03*
X430530Y681580D02*
D03*
Y725580D02*
D03*
X397087Y681580D02*
D03*
Y725580D02*
D03*
X430530Y592920D02*
D03*
Y636920D02*
D03*
X397087Y592920D02*
D03*
Y636920D02*
D03*
X430530Y502764D02*
D03*
Y546764D02*
D03*
X397087Y502764D02*
D03*
Y546764D02*
D03*
X363643Y774036D02*
D03*
Y818036D02*
D03*
Y681580D02*
D03*
Y725580D02*
D03*
Y592920D02*
D03*
Y636920D02*
D03*
Y502764D02*
D03*
Y546764D02*
D03*
D29*
X459740Y475976D02*
D03*
Y460976D02*
D03*
Y911740D02*
D03*
Y896740D02*
D03*
Y824587D02*
D03*
Y809587D02*
D03*
Y737434D02*
D03*
Y722434D02*
D03*
Y650282D02*
D03*
Y635282D02*
D03*
Y563129D02*
D03*
Y548129D02*
D03*
D30*
X460240Y435900D02*
D03*
Y420900D02*
D03*
Y871663D02*
D03*
Y856663D02*
D03*
Y784511D02*
D03*
Y769511D02*
D03*
Y697358D02*
D03*
Y682358D02*
D03*
Y610205D02*
D03*
Y595205D02*
D03*
Y523053D02*
D03*
Y508053D02*
D03*
D31*
X395840Y957580D02*
D03*
X370840D02*
D03*
X295840D02*
D03*
X320840D02*
D03*
X345840D02*
D03*
X420840D02*
D03*
D32*
X270840D02*
D03*
M02*
