G04*
G04 #@! TF.GenerationSoftware,Altium Limited,Altium Designer,21.6.1 (37)*
G04*
G04 Layer_Physical_Order=2*
G04 Layer_Color=16711680*
%FSLAX44Y44*%
%MOMM*%
G71*
G04*
G04 #@! TF.SameCoordinates,7934F4AE-985A-4D5C-9069-E765C515617C*
G04*
G04*
G04 #@! TF.FilePolarity,Positive*
G04*
G01*
G75*
%ADD33C,1.0000*%
%ADD35C,1.5080*%
%ADD36R,1.5080X1.5080*%
%ADD37C,0.7000*%
G36*
X454427Y930849D02*
X456659Y929924D01*
X458668Y928582D01*
X459522Y927728D01*
Y927728D01*
X459522Y927728D01*
X464154Y923096D01*
X465103Y921676D01*
X465757Y920097D01*
X466090Y918422D01*
Y900236D01*
X465854Y899051D01*
X465392Y897935D01*
X464721Y896931D01*
X464294Y896504D01*
X460406Y892616D01*
X458986Y891667D01*
X457407Y891013D01*
X455732Y890680D01*
X402900D01*
Y931320D01*
X452058D01*
X454427Y930849D01*
D02*
G37*
G36*
X388780Y890680D02*
X377900D01*
Y931320D01*
X388780D01*
Y890680D01*
D02*
G37*
G36*
X363780D02*
X352900D01*
Y931320D01*
X363780D01*
Y890680D01*
D02*
G37*
G36*
X338780D02*
X327900D01*
Y931320D01*
X338780D01*
Y890680D01*
D02*
G37*
G36*
X454427Y887669D02*
X456659Y886744D01*
X458668Y885402D01*
X459522Y884548D01*
Y884548D01*
X459522Y884548D01*
X464154Y879916D01*
X465103Y878496D01*
X465757Y876917D01*
X466090Y875242D01*
Y857056D01*
X465854Y855871D01*
X465392Y854755D01*
X464721Y853751D01*
X464294Y853324D01*
X460406Y849436D01*
X458986Y848487D01*
X457407Y847833D01*
X455732Y847500D01*
X402900D01*
Y888140D01*
X452058D01*
X454427Y887669D01*
D02*
G37*
G36*
X388780Y847500D02*
X377900D01*
Y888140D01*
X388780D01*
Y847500D01*
D02*
G37*
G36*
X363780D02*
X352900D01*
Y888140D01*
X363780D01*
Y847500D01*
D02*
G37*
G36*
X338780D02*
X327900D01*
Y888140D01*
X338780D01*
Y847500D01*
D02*
G37*
G36*
X451887Y839409D02*
X454119Y838484D01*
X456128Y837142D01*
X456982Y836288D01*
Y836288D01*
X456982Y836288D01*
X461614Y831656D01*
X462563Y830236D01*
X463217Y828657D01*
X463550Y826982D01*
Y808796D01*
X463314Y807611D01*
X462852Y806495D01*
X462181Y805491D01*
X461754Y805064D01*
X457866Y801176D01*
X456446Y800227D01*
X454868Y799573D01*
X453192Y799240D01*
X377900D01*
Y839880D01*
X449518D01*
X451887Y839409D01*
D02*
G37*
G36*
X363780Y799240D02*
X352900D01*
Y839880D01*
X363780D01*
Y799240D01*
D02*
G37*
G36*
X338780D02*
X327900D01*
Y839880D01*
X338780D01*
Y799240D01*
D02*
G37*
G36*
X451887Y796229D02*
X454119Y795304D01*
X456128Y793962D01*
X456982Y793108D01*
Y793108D01*
X456982Y793108D01*
X461614Y788476D01*
X462563Y787056D01*
X463217Y785477D01*
X463550Y783802D01*
Y765616D01*
X463314Y764431D01*
X462852Y763315D01*
X462181Y762311D01*
X461754Y761884D01*
X457866Y757996D01*
X456446Y757047D01*
X454868Y756393D01*
X453192Y756060D01*
X377900D01*
Y796700D01*
X449518D01*
X451887Y796229D01*
D02*
G37*
G36*
X363780Y756060D02*
X352900D01*
Y796700D01*
X363780D01*
Y756060D01*
D02*
G37*
G36*
X338780D02*
X327900D01*
Y796700D01*
X338780D01*
Y756060D01*
D02*
G37*
G36*
X451577Y747109D02*
X453809Y746184D01*
X455818Y744842D01*
X456672Y743988D01*
Y743988D01*
X456672Y743988D01*
X461304Y739356D01*
X462253Y737936D01*
X462907Y736357D01*
X463240Y734682D01*
Y716496D01*
X463004Y715311D01*
X462542Y714195D01*
X461871Y713191D01*
X461444Y712764D01*
X457556Y708876D01*
X456136Y707927D01*
X454557Y707273D01*
X452882Y706940D01*
X352900D01*
Y747580D01*
X449208D01*
X451577Y747109D01*
D02*
G37*
G36*
X338780Y706940D02*
X327900D01*
Y747580D01*
X338780D01*
Y706940D01*
D02*
G37*
G36*
X454427Y702249D02*
X456659Y701324D01*
X458668Y699982D01*
X459522Y699128D01*
Y699128D01*
X459522Y699128D01*
X464154Y694496D01*
X465103Y693076D01*
X465757Y691497D01*
X466090Y689822D01*
Y671636D01*
X465854Y670451D01*
X465392Y669335D01*
X464721Y668331D01*
X464294Y667904D01*
X460406Y664016D01*
X458986Y663067D01*
X457407Y662413D01*
X455732Y662080D01*
X352900D01*
Y702720D01*
X452058D01*
X454427Y702249D01*
D02*
G37*
G36*
X338780Y662080D02*
X327900D01*
Y702720D01*
X338780D01*
Y662080D01*
D02*
G37*
G36*
X455077Y658448D02*
X457309Y657524D01*
X459318Y656182D01*
X460172Y655328D01*
Y655328D01*
X460172Y655328D01*
X464804Y650696D01*
X465753Y649276D01*
X466407Y647697D01*
X466740Y646022D01*
Y627836D01*
X466504Y626651D01*
X466042Y625535D01*
X465371Y624531D01*
X464944Y624104D01*
X461056Y620216D01*
X459636Y619267D01*
X458057Y618613D01*
X456382Y618280D01*
X327900D01*
Y658920D01*
X452708D01*
X455077Y658448D01*
D02*
G37*
G36*
X448077Y614449D02*
X450309Y613524D01*
X452318Y612182D01*
X453172Y611328D01*
Y611328D01*
X453172Y611328D01*
X457804Y606696D01*
X458753Y605275D01*
X459407Y603697D01*
X459740Y602022D01*
Y583836D01*
X459504Y582651D01*
X459042Y581535D01*
X458371Y580531D01*
X457944Y580104D01*
X454056Y576216D01*
X452636Y575267D01*
X451057Y574613D01*
X449382Y574280D01*
X327900D01*
Y614920D01*
X445708D01*
X448077Y614449D01*
D02*
G37*
G36*
Y568293D02*
X450309Y567368D01*
X452318Y566026D01*
X453172Y565172D01*
Y565172D01*
X453172Y565172D01*
X457804Y560540D01*
X458753Y559120D01*
X459407Y557541D01*
X459740Y555866D01*
Y537680D01*
X459504Y536495D01*
X459042Y535379D01*
X458371Y534375D01*
X457944Y533948D01*
X454056Y530060D01*
X452636Y529111D01*
X451057Y528457D01*
X449382Y528124D01*
X313752D01*
X311383Y528595D01*
X309151Y529520D01*
X307142Y530862D01*
X306288Y531716D01*
X306288Y531716D01*
X306288D01*
X302900Y535103D01*
Y566852D01*
X304284Y567777D01*
X305863Y568431D01*
X307538Y568764D01*
X445708D01*
X448077Y568293D01*
D02*
G37*
G36*
Y524293D02*
X450309Y523368D01*
X452318Y522026D01*
X453172Y521172D01*
Y521172D01*
X453172Y521172D01*
X457804Y516540D01*
X458753Y515120D01*
X459407Y513541D01*
X459740Y511866D01*
Y493680D01*
X459504Y492495D01*
X459042Y491379D01*
X458371Y490375D01*
X457944Y489948D01*
X454056Y486060D01*
X452636Y485111D01*
X451057Y484457D01*
X449382Y484124D01*
X315801D01*
X302900Y497024D01*
Y522852D01*
X304284Y523777D01*
X305863Y524431D01*
X307538Y524764D01*
X445708D01*
X448077Y524293D01*
D02*
G37*
G36*
X448077Y477869D02*
X450309Y476944D01*
X452318Y475602D01*
X453172Y474748D01*
Y474748D01*
X453172Y474748D01*
X457804Y470116D01*
X458753Y468696D01*
X459407Y467117D01*
X459740Y465442D01*
Y447256D01*
X459504Y446071D01*
X459042Y444955D01*
X458371Y443951D01*
X457944Y443524D01*
X454056Y439636D01*
X452636Y438687D01*
X451057Y438033D01*
X449382Y437700D01*
X313752D01*
X311383Y438171D01*
X309151Y439096D01*
X307142Y440438D01*
X306288Y441292D01*
X306288Y441292D01*
X306288D01*
X299116Y448464D01*
X298167Y449884D01*
X297513Y451463D01*
X297180Y453138D01*
Y466848D01*
X297651Y469217D01*
X298576Y471449D01*
X299918Y473458D01*
X302864Y476404D01*
X304284Y477353D01*
X305863Y478007D01*
X307538Y478340D01*
X445708D01*
X448077Y477869D01*
D02*
G37*
G36*
Y433869D02*
X450309Y432944D01*
X452318Y431602D01*
X453172Y430748D01*
Y430748D01*
X453172Y430748D01*
X457804Y426116D01*
X458753Y424696D01*
X459407Y423117D01*
X459740Y421442D01*
Y403256D01*
X459504Y402071D01*
X459042Y400955D01*
X458371Y399951D01*
X457944Y399524D01*
X454056Y395636D01*
X452636Y394687D01*
X451057Y394033D01*
X449382Y393700D01*
X313752D01*
X311383Y394171D01*
X309151Y395096D01*
X307142Y396438D01*
X306288Y397292D01*
X306288Y397292D01*
X306288D01*
X299116Y404464D01*
X298167Y405884D01*
X297513Y407463D01*
X297180Y409138D01*
Y422848D01*
X297651Y425217D01*
X298576Y427449D01*
X299918Y429458D01*
X300772Y430312D01*
X300772Y430312D01*
X300772Y430312D01*
X302864Y432404D01*
X304284Y433353D01*
X305863Y434007D01*
X307538Y434340D01*
X445708D01*
X448077Y433869D01*
D02*
G37*
G36*
X244201Y977900D02*
X276860D01*
Y977900D01*
X277464Y977900D01*
X278649Y977664D01*
X279765Y977202D01*
X280769Y976531D01*
X284480Y972820D01*
X284480Y972820D01*
Y972820D01*
X285688Y971612D01*
X287586Y968771D01*
X288894Y965615D01*
X289141Y964372D01*
X288206Y963438D01*
X286950Y961262D01*
X286300Y958836D01*
Y956324D01*
X286950Y953898D01*
X288206Y951722D01*
X288780Y951149D01*
Y494100D01*
X289020Y492273D01*
X289560Y490970D01*
Y403860D01*
X281759Y396059D01*
X281759Y396059D01*
X279991Y394291D01*
X275830Y391511D01*
X271208Y389596D01*
X266301Y388620D01*
X236220D01*
X228419Y396421D01*
X228419Y396421D01*
X228419Y396421D01*
X226651Y398189D01*
X223871Y402350D01*
X221956Y406972D01*
X220980Y411879D01*
X220980Y414381D01*
Y944880D01*
X226000Y969290D01*
X226241Y970461D01*
X228009Y972229D01*
X232170Y975009D01*
X236792Y976924D01*
X241699Y977900D01*
X244201Y977900D01*
D02*
G37*
D33*
X270840Y408420D02*
X274320Y404940D01*
X270840Y408420D02*
Y957580D01*
X295840Y494100D02*
X332740Y457200D01*
X295840Y494100D02*
Y957580D01*
X320840Y558000D02*
Y957580D01*
Y558000D02*
X332740Y546100D01*
X345440Y637540D02*
X345840Y637940D01*
Y957580D01*
X370840Y726440D02*
Y957580D01*
X395840Y818280D02*
Y957580D01*
Y818280D02*
X396240Y817880D01*
D35*
X395840Y957580D02*
D03*
X370840D02*
D03*
X295840D02*
D03*
X320840D02*
D03*
X345840D02*
D03*
X420840D02*
D03*
D36*
X270840D02*
D03*
D37*
X330200Y412340D02*
D03*
X363220D02*
D03*
X396240D02*
D03*
X430530D02*
D03*
Y456340D02*
D03*
X396240D02*
D03*
X363220D02*
D03*
X416560Y680720D02*
D03*
X397087Y681580D02*
D03*
X430530Y502764D02*
D03*
X397087D02*
D03*
X363643D02*
D03*
X330200D02*
D03*
X430530Y546764D02*
D03*
X397087D02*
D03*
X360680Y546100D02*
D03*
X430530Y592920D02*
D03*
X397087D02*
D03*
X366800Y594190D02*
D03*
X340360Y591820D02*
D03*
X391160Y637540D02*
D03*
X413808Y636920D02*
D03*
X437530D02*
D03*
X439420Y680720D02*
D03*
X365760Y680720D02*
D03*
X368300Y637540D02*
D03*
X335280D02*
D03*
Y680720D02*
D03*
X332740Y726440D02*
D03*
X388620D02*
D03*
X411480D02*
D03*
X434030Y725580D02*
D03*
X436880Y774700D02*
D03*
X413808Y774036D02*
D03*
X388620Y774700D02*
D03*
X358140D02*
D03*
X335280D02*
D03*
X332740Y817880D02*
D03*
X358140D02*
D03*
X439420Y866140D02*
D03*
X413808Y864460D02*
D03*
X383540Y863600D02*
D03*
X332740D02*
D03*
X358140D02*
D03*
X332740Y909320D02*
D03*
X358140D02*
D03*
X383540D02*
D03*
X440995Y909460D02*
D03*
X422185Y909805D02*
D03*
X434340Y817880D02*
D03*
X413808Y818036D02*
D03*
X274320Y404940D02*
D03*
X332740Y457200D02*
D03*
Y546100D02*
D03*
X345440Y637540D02*
D03*
X370840Y726440D02*
D03*
X396240Y817880D02*
D03*
M02*
